<?xml version="1.0"?>
<!--Icons from directory ""-->
<svg xmlns="http://www.w3.org/2000/svg" width="20" height="195" viewBox="0 0 20 195"><svg width="10" height="6" fill="none" id="arrow-bottom" y="0"><path d="M1 1l4 4 4-4" stroke="#3E4056" stroke-width="2" stroke-linecap="round" stroke-linejoin="round"/></svg><svg width="16" height="16" fill="none" id="delete" y="6"><g stroke="#3E4056" stroke-width="2"><path d="M12.95 12.95a7 7 0 11-9.9-9.9 7 7 0 019.9 9.9zM5 11l6-6M11 11L5 5"/></g></svg><svg width="17" height="17" fill="none" id="edit" y="22"><path fill-rule="evenodd" clip-rule="evenodd" d="M9.896 1.414a2 2 0 012.829 0l2.828 2.829a2 2 0 010 2.828L8.605 14.02a.5.5 0 01-.307.144l-3.716.35a2 2 0 01-2.176-2.207l.396-3.642a.5.5 0 01.143-.3l6.951-6.95zm.707 2.122a1 1 0 011.414 0l1.414 1.415a1 1 0 010 1.414l-.708.708-2.828-2.829.708-.708zM8.48 5.66L4.943 9.196l-.414 2.066a1 1 0 001.177 1.176l2.065-.413 3.537-3.537L8.48 5.659z" fill="#F05D63"/></svg><svg width="16" height="14" fill="none" id="like" y="39"><path fill-rule="evenodd" clip-rule="evenodd" d="M8 8.093C7.18 9.255 5.908 10 4.48 10 2.006 10 0 7.761 0 5s2.006-5 4.48-5C5.908 0 7.18.745 8 1.907 8.82.745 10.092 0 11.52 0 13.994 0 16 2.239 16 5s-2.006 5-4.48 5c-1.428 0-2.7-.745-3.52-1.907z" fill="#FB5F8A"/><mask id="like-a" maskUnits="userSpaceOnUse" x="0" y="0" width="16" height="10"><path fill-rule="evenodd" clip-rule="evenodd" d="M8 8.093C7.18 9.255 5.908 10 4.48 10 2.006 10 0 7.761 0 5s2.006-5 4.48-5C5.908 0 7.18.745 8 1.907 8.82.745 10.092 0 11.52 0 13.994 0 16 2.239 16 5s-2.006 5-4.48 5c-1.428 0-2.7-.745-3.52-1.907z" fill="#fff"/></mask><g mask="url(#like-a)"><path fill="#FC719F" d="M0 0h16v16H0z"/><path fill="#ED5267" d="M0 0h16v16H0z"/></g><path fill-rule="evenodd" clip-rule="evenodd" d="M8 14c2.761 0 8-5 8-9H0c0 4 5.239 9 8 9z" fill="#FB5F8A"/><mask id="like-b" maskUnits="userSpaceOnUse" x="0" y="5" width="16" height="9"><path fill-rule="evenodd" clip-rule="evenodd" d="M8 14c2.761 0 8-5 8-9H0c0 4 5.239 9 8 9z" fill="#fff"/></mask><g mask="url(#like-b)"><path fill="#FC719F" d="M0 0h16v16H0z"/><path fill="#ED5267" d="M0 0h16v16H0z"/></g></svg><svg width="16" height="13" fill="none" id="medium" y="53"><path d="M1.897 2.652a.642.642 0 00-.201-.535L.202.275V0H4.84l3.586 8.048L11.578 0H16v.275L14.723 1.53a.386.386 0 00-.142.366v9.21a.386.386 0 00.142.367l1.247 1.253V13H9.696v-.275l1.292-1.284c.127-.13.127-.168.127-.367V3.63l-3.593 9.34h-.486L2.853 3.63v6.26a.876.876 0 00.232.718l1.68 2.086v.275H0v-.275l1.68-2.086c.18-.19.26-.457.217-.719V2.652z" fill="#3E3F58"/></svg><svg width="4" height="16" fill="none" id="menu" y="66"><mask id="menu-a" fill="#fff"><path fill-rule="evenodd" clip-rule="evenodd" d="M4 2a2 2 0 11-4 0 2 2 0 014 0zm0 6a2 2 0 11-4 0 2 2 0 014 0zm-2 8a2 2 0 100-4 2 2 0 000 4z"/></mask><path d="M2 6a4 4 0 004-4H2v4zm-4-4a4 4 0 004 4V2h-4zm4-4a4 4 0 00-4 4h4v-4zm4 4a4 4 0 00-4-4v4h4zM2 12a4 4 0 004-4H2v4zm-4-4a4 4 0 004 4V8h-4zm4-4a4 4 0 00-4 4h4V4zm4 4a4 4 0 00-4-4v4h4zm-4 6v4a4 4 0 004-4H2zm0 0h4a4 4 0 00-4-4v4zm0 0v-4a4 4 0 00-4 4h4zm0 0h-4a4 4 0 004 4v-4z" fill="#3E4056" mask="url(#menu-a)"/></svg><svg width="14" height="16" fill="none" id="notifications" y="82"><mask id="notifications-a" fill="#fff"><path fill-rule="evenodd" clip-rule="evenodd" d="M8.647 14.4c0 .88-.741 1.6-1.647 1.6s-1.647-.72-1.647-1.6h3.294zM7 3.512l-.787.181C4.698 4.042 3.647 5.336 3.647 6.8V11.6h8.317l.389-.4.412.4L14 12.8v.8H0v-.8l1.235-1.2.412-.4V6.8c0-2.456 1.754-4.512 4.118-5.056V1.2C5.765.536 6.316 0 7 0s1.235.536 1.235 1.2v.544c2.364.544 4.118 2.6 4.118 5.056v4.4h-2V6.8c0-1.464-1.05-2.758-2.566-3.107L7 3.512z"/></mask><path d="M8.647 14.4h2v-2h-2v2zm-3.294 0v-2h-2v2h2zm.86-10.707l.449 1.95-.449-1.95zM7 3.512l.449-1.95L7 1.46l-.449.103L7 3.512zM3.647 11.6h-2v2h2v-2zm8.317 0v2h.846l.589-.606-1.435-1.394zm.8 0l-1.393 1.435 1.394-1.435zM14 12.8h2v-.846l-.606-.589L14 12.8zm0 .8v2h2v-2h-2zm-14 0h-2v2h2v-2zm0-.8l-1.394-1.435-.606.59v.845h2zm1.235-1.2l-1.393-1.435L1.235 11.6zm.412-.4l1.394 1.435.606-.59V11.2h-2zm4.118-9.456l.448 1.949 1.552-.357V1.744h-2zm2.47 0h-2v1.592l1.552.357.448-1.949zm2.118 9.456h-2v2h2v-2zM7.787 3.693l-.449 1.95.449-1.95zM7 18c1.955 0 3.647-1.561 3.647-3.6h-4c0-.279.21-.4.353-.4v4zm-3.647-3.6C3.353 16.439 5.045 18 7 18v-4c.144 0 .353.121.353.4h-4zm3.294-2H5.353v4h1.294v-4zm.353 0h-.353v4H7v-4zm.353 0H7v4h.353v-4zm1.294 0H7.353v4h1.294v-4zM6.662 5.642l.787-.181-.898-3.898-.786.181.897 3.898zM5.647 6.8c0-.48.355-1.006 1.015-1.158l-.897-3.898C3.394 2.29 1.647 4.352 1.647 6.8h4zm0 4.4V6.8h-4v4.4h4zm0 .4v-.4h-4v.4h4zm6.317-2H3.647v4h8.317v-4zm-1.046.206l-.388.4 2.869 2.788.389-.4-2.87-2.788zm3.24.36l-.412-.4-2.787 2.869.412.4 2.787-2.87zm1.236 1.2l-1.236-1.2-2.787 2.869 1.235 1.2 2.788-2.87zM16 13.6v-.8h-4v.8h4zm-2.777 2H14v-4h-.777v4zM12 15.6h1.223v-4H12v4zm-.047 0H12v-4h-.047v4zm-9.906 0h9.906v-4H2.047v4zM2 15.6h.047v-4H2v4zm-1.223 0H2v-4H.777v4zM0 15.6h.777v-4H0v4zm-2-2.8v.8h4v-.8h-4zm1.842-2.635l-1.236 1.2 2.788 2.87 1.235-1.2-2.787-2.87zm.411-.4l-.411.4 2.787 2.87.412-.4-2.788-2.87zM-.353 6.8v4.4h4V6.8h-4zm5.67-7.005C2.104.535-.354 3.352-.354 6.8h4c0-1.464 1.05-2.758 2.566-3.107L5.316-.205zM3.764 1.2v.544h4V1.2h-4zM7-2C5.267-2 3.765-.623 3.765 1.2h4c0 .495-.399.8-.765.8v-4zm3.235 3.2C10.235-.623 8.733-2 7-2v4a.784.784 0 01-.765-.8h4zm0 .544V1.2h-4v.544h4zM14.353 6.8c0-3.448-2.458-6.266-5.67-7.005l-.896 3.898c1.515.349 2.566 1.643 2.566 3.107h4zm0 4.4V6.8h-4v4.4h4zm-4 2h2v-4h-2v4zm-2-6.4v4.4h4V6.8h-4zM7.338 5.642c.66.152 1.015.678 1.015 1.158h4c0-2.448-1.746-4.51-4.118-5.056l-.897 3.898zm-.787-.181l.787.181.897-3.898-.786-.181L6.55 5.46z" fill="#3E4056" mask="url(#notifications-a)"/></svg><svg width="16" height="16" fill="none" id="play" y="98"><path opacity=".01" fill="#ECF1F8" d="M0 0h16v16H0z"/><path fill-rule="evenodd" clip-rule="evenodd" d="M15 8a2.306 2.306 0 01-.929 1.814L7.96 14.496c-.732.554-1.73.66-2.57.275-.842-.386-1.381-1.196-1.39-2.09V3.319c.009-.893.548-1.703 1.39-2.089a2.533 2.533 0 012.57.275l6.111 4.682c.58.439.922 1.106.929 1.814z" fill="#3E4056"/><mask id="play-a" maskUnits="userSpaceOnUse" x="4" y="1" width="11" height="14"><path fill-rule="evenodd" clip-rule="evenodd" d="M15 8a2.306 2.306 0 01-.929 1.814L7.96 14.496c-.732.554-1.73.66-2.57.275-.842-.386-1.381-1.196-1.39-2.09V3.319c.009-.893.548-1.703 1.39-2.089a2.533 2.533 0 012.57.275l6.111 4.682c.58.439.922 1.106.929 1.814z" fill="#fff"/></mask><g mask="url(#play-a)"><path fill="#3E4056" d="M0 0h16v16H0z"/></g></svg><svg width="20" height="20" fill="none" id="plus" y="114"><path fill-rule="evenodd" clip-rule="evenodd" d="M10.91 0H9.09v9.09H0v1.82h9.09V20h1.82v-9.09H20V9.09h-9.09V0z" fill="#3E4056"/></svg><svg width="20" height="20" fill="none" id="report" y="134"><path opacity=".01" fill="#C3CADF" d="M0 0h20v20H0z"/><path d="M4 17a2 2 0 01-2-2V3a2 2 0 012-2h10a2 2 0 012 2v1" stroke="#3E4056" stroke-width="2"/><rect x="5" y="4" width="8" height="2" rx="1" fill="#3E4056"/><path fill-rule="evenodd" clip-rule="evenodd" d="M5 9a1 1 0 011-1h4l-2 2H6a1 1 0 01-1-1zM13.893 6.928a2 2 0 012.829 0l2.828 2.828a2 2 0 010 2.829l-6.944 6.943a.5.5 0 01-.306.144l-3.715.35a2 2 0 01-2.176-2.206l.394-3.642a.5.5 0 01.144-.3l6.946-6.946zm.707 2.121a1 1 0 011.415 0l1.414 1.414a1 1 0 010 1.414l-.707.707-2.829-2.828.707-.707zm-2.12 2.121l-3.536 3.535-.413 2.065a1 1 0 001.177 1.177l2.065-.413 3.534-3.535-2.828-2.829z" fill="#3E4056"/></svg><svg width="16" height="17" fill="none" id="share-recap" y="154"><rect x="2" y="6" width="12" height="10" rx="2" stroke="#3E4056" stroke-width="2"/><path clip-rule="evenodd" d="M4.424 6.471c1.082.394 3.047.156 3.425-.882.378-1.037-.975-2.483-2.056-2.876-1.082-.394-2.264.128-2.642 1.166-.378 1.038.192 2.199 1.273 2.592z" stroke="#3E4056" stroke-width="2"/><path clip-rule="evenodd" d="M11.576 6.471c-1.082.394-3.047.156-3.425-.882-.378-1.037.975-2.483 2.056-2.876 1.082-.394 2.264.128 2.642 1.166.378 1.038-.192 2.199-1.273 2.592z" stroke="#3E4056" stroke-width="2"/><path fill="#3E4056" d="M7 6h2v10H7z"/><mask id="share-recap-a" fill="#fff"><path d="M0 7a2 2 0 012-2h12a2 2 0 012 2v3a1 1 0 01-1 1H1a1 1 0 01-1-1V7z"/></mask><path d="M0 7a2 2 0 012-2h12a2 2 0 012 2v3a1 1 0 01-1 1H1a1 1 0 01-1-1V7z" fill="#fff" stroke="#3E4056" stroke-width="4" mask="url(#share-recap-a)"/></svg><svg width="20" height="20" fill="none" id="share" y="171"><path fill-rule="evenodd" clip-rule="evenodd" d="M8.58815 4.34081C10.5395 2.38948 13.7082 2.3945 15.6569 4.34315C17.6095 6.29577 17.6074 9.46372 15.6592 11.4119L11.4119 15.6592C9.46056 17.6105 6.29181 17.6055 4.34316 15.6569C2.39054 13.7042 2.39267 10.5363 4.34082 8.58814L8.58815 4.34081ZM10.002 5.75535L5.75536 10.002C4.58473 11.1727 4.5858 13.0711 5.75738 14.2426C6.92657 15.4118 8.82754 15.4151 9.998 14.2447L14.2447 9.99799C15.4153 8.82736 15.4142 6.92894 14.2427 5.75736C13.0735 4.58818 11.1725 4.58489 10.002 5.75535ZM7.8787 5.05026L5.05027 7.87868L6.46448 9.2929L9.29291 6.46447L7.8787 5.05026ZM13.5356 10.7071L10.7071 13.5355L12.1213 14.9498L14.9498 12.1213L13.5356 10.7071ZM10.7136 7.87216C11.1006 7.48524 11.7281 7.48544 12.1213 7.87868C12.5119 8.26921 12.5096 8.90468 12.1279 9.28638L9.28639 12.1278C8.89947 12.5148 8.27194 12.5146 7.8787 12.1213C7.48817 11.7308 7.49048 11.0953 7.87218 10.7136L10.7136 7.87216Z" fill="#3E4056"/><mask id="mask0" mask-type="alpha" maskUnits="userSpaceOnUse" x="2" y="2" width="16" height="16"><path fill-rule="evenodd" clip-rule="evenodd" d="M8.58815 4.34081C10.5395 2.38948 13.7082 2.3945 15.6569 4.34315C17.6095 6.29577 17.6074 9.46372 15.6592 11.4119L11.4119 15.6592C9.46056 17.6105 6.29181 17.6055 4.34316 15.6569C2.39054 13.7042 2.39267 10.5363 4.34082 8.58814L8.58815 4.34081ZM10.002 5.75535L5.75536 10.002C4.58473 11.1727 4.5858 13.0711 5.75738 14.2426C6.92657 15.4118 8.82754 15.4151 9.998 14.2447L14.2447 9.99799C15.4153 8.82736 15.4142 6.92894 14.2427 5.75736C13.0735 4.58818 11.1725 4.58489 10.002 5.75535ZM7.8787 5.05026L5.05027 7.87868L6.46448 9.2929L9.29291 6.46447L7.8787 5.05026ZM13.5356 10.7071L10.7071 13.5355L12.1213 14.9498L14.9498 12.1213L13.5356 10.7071ZM10.7136 7.87216C11.1006 7.48524 11.7281 7.48544 12.1213 7.87868C12.5119 8.26921 12.5096 8.90468 12.1279 9.28638L9.28639 12.1278C8.89947 12.5148 8.27194 12.5146 7.8787 12.1213C7.48817 11.7308 7.49048 11.0953 7.87218 10.7136L10.7136 7.87216Z" fill="white"/></mask><g mask="url(#mask0)"><rect x="2" y="2" width="16" height="16" fill="#3E4056"/></g><path fill-rule="evenodd" clip-rule="evenodd" d="M5.05028 7.87867C5.44081 7.48815 6.07125 7.48543 6.4645 7.87867C6.85502 8.2692 6.85774 8.89964 6.4645 9.29289C6.07397 9.68341 5.44353 9.68613 5.05028 9.29289C4.65976 8.90236 4.65703 8.27192 5.05028 7.87867ZM10.7071 13.5355C11.0977 13.145 11.7281 13.1423 12.1213 13.5355C12.5119 13.9261 12.5146 14.5565 12.1213 14.9497C11.7308 15.3403 11.1004 15.343 10.7071 14.9497C10.3166 14.5592 10.3139 13.9288 10.7071 13.5355ZM13.5356 10.7071C13.9261 10.3166 14.5565 10.3139 14.9498 10.7071C15.3403 11.0976 15.343 11.7281 14.9498 12.1213C14.5593 12.5118 13.9288 12.5146 13.5356 12.1213C13.145 11.7308 13.1423 11.1003 13.5356 10.7071ZM7.87871 5.05025C8.26923 4.65972 8.89968 4.657 9.29292 5.05025C9.68345 5.44077 9.68617 6.07121 9.29292 6.46446C8.9024 6.85498 8.27196 6.85771 7.87871 6.46446C7.48818 6.07394 7.48546 5.44349 7.87871 5.05025Z" fill="#3E4056"/><mask id="mask1" mask-type="alpha" maskUnits="userSpaceOnUse" x="4" y="4" width="12" height="12"><path fill-rule="evenodd" clip-rule="evenodd" d="M5.05028 7.87867C5.44081 7.48815 6.07125 7.48543 6.4645 7.87867C6.85502 8.2692 6.85774 8.89964 6.4645 9.29289C6.07397 9.68341 5.44353 9.68613 5.05028 9.29289C4.65976 8.90236 4.65703 8.27192 5.05028 7.87867ZM10.7071 13.5355C11.0977 13.145 11.7281 13.1423 12.1213 13.5355C12.5119 13.9261 12.5146 14.5565 12.1213 14.9497C11.7308 15.3403 11.1004 15.343 10.7071 14.9497C10.3166 14.5592 10.3139 13.9288 10.7071 13.5355ZM13.5356 10.7071C13.9261 10.3166 14.5565 10.3139 14.9498 10.7071C15.3403 11.0976 15.343 11.7281 14.9498 12.1213C14.5593 12.5118 13.9288 12.5146 13.5356 12.1213C13.145 11.7308 13.1423 11.1003 13.5356 10.7071ZM7.87871 5.05025C8.26923 4.65972 8.89968 4.657 9.29292 5.05025C9.68345 5.44077 9.68617 6.07121 9.29292 6.46446C8.9024 6.85498 8.27196 6.85771 7.87871 6.46446C7.48818 6.07394 7.48546 5.44349 7.87871 5.05025Z" fill="white"/></mask><g mask="url(#mask1)"><rect x="2" y="2" width="16" height="16" fill="#3E4056"/></g></svg>

</svg>
